<?xml version="1.0" encoding="UTF-8" standalone="no"?>
<!-- Created with Inkscape (http://www.inkscape.org/) -->

<svg
   xmlns:dc="http://purl.org/dc/elements/1.1/"
   xmlns:cc="http://creativecommons.org/ns#"
   xmlns:rdf="http://www.w3.org/1999/02/22-rdf-syntax-ns#"
   xmlns:svg="http://www.w3.org/2000/svg"
   xmlns="http://www.w3.org/2000/svg"
   xmlns:sodipodi="http://sodipodi.sourceforge.net/DTD/sodipodi-0.dtd"
   xmlns:inkscape="http://www.inkscape.org/namespaces/inkscape"
   width="32"
   height="32"
   viewBox="0 0 8.4666665 8.4666669"
   version="1.1"
   id="svg8"
   inkscape:version="0.92.4 (5da689c313, 2019-01-14)"
   sodipodi:docname="cancel.svg">
  <defs
     id="defs2" />
  <sodipodi:namedview
     id="base"
     pagecolor="#ffffff"
     bordercolor="#666666"
     borderopacity="1.0"
     inkscape:pageopacity="0.0"
     inkscape:pageshadow="2"
     inkscape:zoom="11.313709"
     inkscape:cx="7.5692141"
     inkscape:cy="11.30586"
     inkscape:document-units="mm"
     inkscape:current-layer="layer1"
     showgrid="false"
     units="px"
     inkscape:window-width="1360"
     inkscape:window-height="706"
     inkscape:window-x="-8"
     inkscape:window-y="-8"
     inkscape:window-maximized="1" />
  <metadata
     id="metadata5">
    <rdf:RDF>
      <cc:Work
         rdf:about="">
        <dc:format>image/svg+xml</dc:format>
        <dc:type
           rdf:resource="http://purl.org/dc/dcmitype/StillImage" />
        <dc:title />
      </cc:Work>
    </rdf:RDF>
  </metadata>
  <g
     inkscape:label="Layer 1"
     inkscape:groupmode="layer"
     id="layer1"
     transform="translate(0,-288.53332)">
    <path
       style="opacity:1;fill:#000000;fill-opacity:1;stroke:#000000;stroke-width:0.63679856;stroke-miterlimit:4;stroke-dasharray:none;stroke-opacity:1"
       d="m 0.64091039,290.37243 c 0.045144,-0.0486 1.05913241,-1.05053 1.19250301,-1.15004 0.1333709,-0.0995 0.2506161,-0.0492 0.3100834,0 0.059616,0.0491 1.9902147,1.98522 2.0584858,1.98521 0.068278,0 2.2731594,-1.90374 2.3459276,-1.93795 0.1809672,-0.0851 0.2868961,0.042 0.2868961,0.042 l 1.0469583,1.00967 c 0,0 0.1060167,0.10184 0.028986,0.2629 -0.053808,0.11271 -2.1851065,1.98146 -2.185505,2.09265 -4.332e-4,0.11117 1.9998151,1.92526 2.0584855,1.98521 0.05866,0.0597 0.100849,0.183 0,0.29904 -0.1009294,0.11607 -1.064678,1.04014 -1.1925029,1.15007 -0.1278256,0.1097 -0.2516301,0.0625 -0.3100835,0 -0.058229,-0.0627 -1.970346,-1.98447 -2.0584861,-1.98522 -0.088121,-7.6e-4 -2.15581,2.02341 -2.2680552,2.10858 -0.112245,0.0852 -0.2507548,0.0415 -0.3208714,-0.0261 l -1.12185011,-1.08192 c -0.0701,-0.0676 -0.1270798,-0.19107 -0.0272,-0.30946 0.1068652,-0.12658 2.21474931,-2.08123 2.21476691,-2.16 0,-0.0786 -1.99109911,-1.91517 -2.05848631,-1.98519 -0.1236399,-0.11898 -0.047943,-0.24765 -5.14e-5,-0.2991 z"
       id="rect816"
       inkscape:connector-curvature="0"
       sodipodi:nodetypes="szzzszzszzzzzzzzzszcs" />
  </g>
</svg>
