<?xml version="1.0" encoding="UTF-8" standalone="no"?>
<!-- Created with Inkscape (http://www.inkscape.org/) -->

<svg
   xmlns:osb="http://www.openswatchbook.org/uri/2009/osb"
   xmlns:dc="http://purl.org/dc/elements/1.1/"
   xmlns:cc="http://creativecommons.org/ns#"
   xmlns:rdf="http://www.w3.org/1999/02/22-rdf-syntax-ns#"
   xmlns:svg="http://www.w3.org/2000/svg"
   xmlns="http://www.w3.org/2000/svg"
   xmlns:sodipodi="http://sodipodi.sourceforge.net/DTD/sodipodi-0.dtd"
   xmlns:inkscape="http://www.inkscape.org/namespaces/inkscape"
   width="32"
   height="32"
   viewBox="0 0 8.4666665 8.4666669"
   version="1.1"
   id="svg8"
   sodipodi:docname="clear.svg"
   inkscape:version="0.92.4 (5da689c313, 2019-01-14)">
  <defs
     id="defs2">
    <linearGradient
       id="linearGradient818"
       osb:paint="solid">
      <stop
         style="stop-color:#000000;stop-opacity:1;"
         offset="0"
         id="stop816" />
    </linearGradient>
  </defs>
  <sodipodi:namedview
     id="base"
     pagecolor="#ffffff"
     bordercolor="#666666"
     borderopacity="1.0"
     inkscape:pageopacity="0.0"
     inkscape:pageshadow="2"
     inkscape:zoom="7.5943268"
     inkscape:cx="22.471459"
     inkscape:cy="17.558483"
     inkscape:document-units="mm"
     inkscape:current-layer="layer1"
     showgrid="false"
     units="px"
     inkscape:window-width="1360"
     inkscape:window-height="706"
     inkscape:window-x="-8"
     inkscape:window-y="-8"
     inkscape:window-maximized="1" />
  <metadata
     id="metadata5">
    <rdf:RDF>
      <cc:Work
         rdf:about="">
        <dc:format>image/svg+xml</dc:format>
        <dc:type
           rdf:resource="http://purl.org/dc/dcmitype/StillImage" />
        <dc:title />
      </cc:Work>
    </rdf:RDF>
  </metadata>
  <g
     inkscape:label="Layer 1"
     inkscape:groupmode="layer"
     id="layer1"
     transform="translate(0,-288.53332)">
    <path
       style="fill:#000000;fill-opacity:1;stroke:#000000;stroke-width:0.52899998;stroke-miterlimit:4;stroke-dasharray:none"
       d="m 2.9433218,289.50181 c 0.4764345,-0.003 0.3836705,-0.23466 0.3836705,-0.23466 0,-0.23248 0.00807,-0.30815 0.2984104,-0.30815 h 1.3641618 c 0.3451907,0 0.2984104,0.11156 0.2984104,0.30815 0,0.13761 -0.1093104,0.23466 0.3836706,0.23466 h 1.3641618 c 0.078811,0 0.3333728,-0.0123 0.3333728,0.29522 0,0.30755 0.039555,0.63859 -0.1726466,0.63859 H 6.9962453 c 0,0 0.010021,1.61053 6.353e-4,3.16274 -0.00938,1.55221 0.061327,2.94669 -0.073559,2.94669 H 5.6408892 4.3074835 2.974078 1.6916464 c -0.1395397,0 -0.079926,-1.39448 -0.1009552,-2.94669 -0.021028,-1.55221 -0.023262,-3.16274 -0.023262,-3.16274 H 1.3730326 c -0.2740687,0 -0.1960327,-0.515 -0.1960327,-0.73502 0,-0.22003 0.342583,-0.19984 0.3778064,-0.19882 0.08203,0 0.9259582,0.003 1.3885155,3e-5 z"
       id="rect6329"
       inkscape:connector-curvature="0"
       sodipodi:nodetypes="csccsszzscsszzzsscszcc" />
  </g>
</svg>
