<?xml version="1.0" encoding="UTF-8" standalone="no"?>
<!-- Created with Inkscape (http://www.inkscape.org/) -->

<svg
   xmlns:dc="http://purl.org/dc/elements/1.1/"
   xmlns:cc="http://creativecommons.org/ns#"
   xmlns:rdf="http://www.w3.org/1999/02/22-rdf-syntax-ns#"
   xmlns:svg="http://www.w3.org/2000/svg"
   xmlns="http://www.w3.org/2000/svg"
   xmlns:sodipodi="http://sodipodi.sourceforge.net/DTD/sodipodi-0.dtd"
   xmlns:inkscape="http://www.inkscape.org/namespaces/inkscape"
   width="32"
   height="32"
   viewBox="0 0 8.4666665 8.4666669"
   version="1.1"
   id="svg8"
   inkscape:version="0.92.4 5da689c313, 2019-01-14"
   sodipodi:docname="forward.svg"
   inkscape:export-filename="/home/siva/Documents/Projects/pyfileshare/icons_src/forward.png"
   inkscape:export-xdpi="96.000008"
   inkscape:export-ydpi="96.000008">
  <defs
     id="defs2" />
  <sodipodi:namedview
     id="base"
     pagecolor="#ffffff"
     bordercolor="#666666"
     borderopacity="1.0"
     inkscape:pageopacity="0.0"
     inkscape:pageshadow="2"
     inkscape:zoom="11.443214"
     inkscape:cx="1.299084"
     inkscape:cy="11.830466"
     inkscape:document-units="mm"
     inkscape:current-layer="layer1"
     showgrid="false"
     units="px"
     inkscape:window-width="1366"
     inkscape:window-height="704"
     inkscape:window-x="0"
     inkscape:window-y="0"
     inkscape:window-maximized="1" />
  <metadata
     id="metadata5">
    <rdf:RDF>
      <cc:Work
         rdf:about="">
        <dc:format>image/svg+xml</dc:format>
        <dc:type
           rdf:resource="http://purl.org/dc/dcmitype/StillImage" />
        <dc:title />
      </cc:Work>
    </rdf:RDF>
  </metadata>
  <g
     inkscape:label="Layer 1"
     inkscape:groupmode="layer"
     id="layer1"
     transform="translate(0,-288.53332)">
    <path
       style="fill:#000000;fill-opacity:1;stroke:#000000;stroke-width:0.26458332;stroke-miterlimit:4;stroke-dasharray:none"
       inkscape:transform-center-x="-0.8422928"
       d="m 3.3141815,294.1794 c 0,-0.21112 0.14042,-0.20161 0.52325,-0.41946 0.38283,-0.21784 1.02733,-0.4917 1.02733,-0.56407 0,-0.14474 -3.39098,0.009 -3.39098,-0.0952 v -0.31409 -0.31409 c 0,-0.10468 3.39098,0.0191 3.39098,-0.0952 0,-0.0572 -0.63974,-0.35139 -1.0245,-0.5584 -0.38476,-0.207 -0.52608,-0.27202 -0.52608,-0.51046 0,-0.23288 -0.0505,-0.44412 0.14463,-0.51337 0.1772,-0.0629 0.78258,0.30291 1.17116,0.52725 l 0.81741,0.47197 0.8174,0.4719 c 1.02975,0.57596 0.96172,0.44529 0,1.00053 0,0 -0.53231,0.31408 -0.78584,0.47194 -0.25352,0.15786 -0.78682,0.45106 -0.78682,0.45106 -0.50684,0.30193 -1.07654,0.61017 -1.28002,0.52324 -0.12775,-0.0546 -0.0979,-0.22529 -0.0979,-0.53349 z"
       id="path5515"
       inkscape:connector-curvature="0"
       sodipodi:nodetypes="ssszzzsssscccczcss"
       inkscape:transform-center-y="4.9375567e-05" />
    <circle
       style="opacity:1;fill:none;fill-opacity:1;stroke:#000000;stroke-width:0.26458332;stroke-miterlimit:4;stroke-dasharray:none;stroke-opacity:1"
       id="path816"
       cx="4.2427802"
       cy="292.7572"
       r="3.5953803" />
  </g>
</svg>
