<?xml version="1.0" encoding="UTF-8" standalone="no"?>
<!-- Created with Inkscape (http://www.inkscape.org/) -->

<svg
   xmlns:dc="http://purl.org/dc/elements/1.1/"
   xmlns:cc="http://creativecommons.org/ns#"
   xmlns:rdf="http://www.w3.org/1999/02/22-rdf-syntax-ns#"
   xmlns:svg="http://www.w3.org/2000/svg"
   xmlns="http://www.w3.org/2000/svg"
   xmlns:sodipodi="http://sodipodi.sourceforge.net/DTD/sodipodi-0.dtd"
   xmlns:inkscape="http://www.inkscape.org/namespaces/inkscape"
   width="32"
   height="32"
   viewBox="0 0 8.4666665 8.4666669"
   version="1.1"
   id="svg8"
   inkscape:version="0.92.4 (5da689c313, 2019-01-14)"
   sodipodi:docname="resume_all.svg">
  <defs
     id="defs2" />
  <sodipodi:namedview
     id="base"
     pagecolor="#ffffff"
     bordercolor="#666666"
     borderopacity="1.0"
     inkscape:pageopacity="0.0"
     inkscape:pageshadow="2"
     inkscape:zoom="13.323381"
     inkscape:cx="14.041667"
     inkscape:cy="13.772825"
     inkscape:document-units="mm"
     inkscape:current-layer="layer1"
     showgrid="false"
     units="px"
     inkscape:window-width="1360"
     inkscape:window-height="706"
     inkscape:window-x="-8"
     inkscape:window-y="-8"
     inkscape:window-maximized="1" />
  <metadata
     id="metadata5">
    <rdf:RDF>
      <cc:Work
         rdf:about="">
        <dc:format>image/svg+xml</dc:format>
        <dc:type
           rdf:resource="http://purl.org/dc/dcmitype/StillImage" />
        <dc:title />
      </cc:Work>
    </rdf:RDF>
  </metadata>
  <g
     inkscape:label="Layer 1"
     inkscape:groupmode="layer"
     id="layer1"
     transform="translate(0,-288.53332)">
    <path
       style="opacity:1;fill:none;fill-opacity:1;stroke:#000000;stroke-width:0.9858315;stroke-miterlimit:4;stroke-dasharray:none"
       d="m 7.3246629,292.76019 a 3.1047171,3.1047171 0 0 1 -3.1047156,3.10471 3.1047171,3.1047171 0 0 1 -3.1047161,-3.10471 3.1047171,3.1047171 0 0 1 3.1047161,-3.1047 3.1047171,3.1047171 0 0 1 3.1047156,3.1047 z"
       id="path816-3-2"
       inkscape:connector-curvature="0" />
    <path
       style="opacity:1;fill:none;fill-opacity:1;stroke:#000000;stroke-width:0.50699717;stroke-miterlimit:4;stroke-dasharray:none"
       d="m 8.0538073,292.76019 a 3.8338604,3.8338604 0 0 1 -3.8338604,3.83384 3.8338604,3.8338604 0 0 1 -3.8338601,-3.83384 3.8338604,3.8338604 0 0 1 3.8338601,-3.83383 3.8338604,3.8338604 0 0 1 3.8338604,3.83383 z"
       id="path816"
       inkscape:connector-curvature="0" />
    <path
       style="opacity:1;fill:none;fill-opacity:1;stroke:#000000;stroke-width:0.52916667;stroke-miterlimit:4;stroke-dasharray:none"
       d="m 6.5817008,292.76019 a 2.3617548,2.3617548 0 0 1 -2.3617534,2.36175 2.3617548,2.3617548 0 0 1 -2.3617541,-2.36175 2.3617548,2.3617548 0 0 1 2.3617541,-2.36174 2.3617548,2.3617548 0 0 1 2.3617534,2.36174 z"
       id="path816-3"
       inkscape:connector-curvature="0" />
  </g>
</svg>
